#VRML V2.0 utf8
# heypcb-kicad simplified body: Hanrun HR911105A RJ45 envelope
Shape {
  appearance Appearance { material Material { diffuseColor 0.750 0.760 0.780 specularColor 0.60 0.60 0.60 shininess 0.6 } }
  geometry IndexedFaceSet { coord Coordinate { point [ -1.5433 -6.7953 0.0000, 4.9055 -6.7953 0.0000, 4.9055 1.5906 0.0000, -1.5433 1.5906 0.0000, -1.5433 -6.7953 5.2362, 4.9055 -6.7953 5.2362, 4.9055 1.5906 5.2362, -1.5433 1.5906 5.2362 ] } coordIndex [ 0,3,2,1,-1, 4,5,6,7,-1, 0,1,5,4,-1, 1,2,6,5,-1, 2,3,7,6,-1, 3,0,4,7,-1 ] }
}
Shape {
  appearance Appearance { material Material { diffuseColor 0.040 0.040 0.050 specularColor 0.10 0.10 0.10 shininess 0.6 } }
  geometry IndexedFaceSet { coord Coordinate { point [ -0.6378 -6.8031 0.4724, 4.0000 -6.8031 0.4724, 4.0000 -6.4016 0.4724, -0.6378 -6.4016 0.4724, -0.6378 -6.8031 3.9764, 4.0000 -6.8031 3.9764, 4.0000 -6.4016 3.9764, -0.6378 -6.4016 3.9764 ] } coordIndex [ 0,3,2,1,-1, 4,5,6,7,-1, 0,1,5,4,-1, 1,2,6,5,-1, 2,3,7,6,-1, 3,0,4,7,-1 ] }
}
Shape {
  appearance Appearance { material Material { diffuseColor 0.040 0.040 0.050 specularColor 0.10 0.10 0.10 shininess 0.6 } }
  geometry IndexedFaceSet { coord Coordinate { point [ 0.6614 -6.8071 3.9764, 2.7008 -6.8071 3.9764, 2.7008 -6.5591 3.9764, 0.6614 -6.5591 3.9764, 0.6614 -6.8071 4.6850, 2.7008 -6.8071 4.6850, 2.7008 -6.5591 4.6850, 0.6614 -6.5591 4.6850 ] } coordIndex [ 0,3,2,1,-1, 4,5,6,7,-1, 0,1,5,4,-1, 1,2,6,5,-1, 2,3,7,6,-1, 3,0,4,7,-1 ] }
}
Shape {
  appearance Appearance { material Material { diffuseColor 0.950 0.750 0.100 specularColor 0.30 0.30 0.30 shininess 0.6 } }
  geometry IndexedFaceSet { coord Coordinate { point [ -1.3071 -6.8071 4.2126, -0.7559 -6.8071 4.2126, -0.7559 -6.7165 4.2126, -1.3071 -6.7165 4.2126, -1.3071 -6.8071 4.6850, -0.7559 -6.8071 4.6850, -0.7559 -6.7165 4.6850, -1.3071 -6.7165 4.6850 ] } coordIndex [ 0,3,2,1,-1, 4,5,6,7,-1, 0,1,5,4,-1, 1,2,6,5,-1, 2,3,7,6,-1, 3,0,4,7,-1 ] }
}
Shape {
  appearance Appearance { material Material { diffuseColor 0.250 0.850 0.250 specularColor 0.30 0.30 0.30 shininess 0.6 } }
  geometry IndexedFaceSet { coord Coordinate { point [ 4.1181 -6.8071 4.2126, 4.6693 -6.8071 4.2126, 4.6693 -6.7165 4.2126, 4.1181 -6.7165 4.2126, 4.1181 -6.8071 4.6850, 4.6693 -6.8071 4.6850, 4.6693 -6.7165 4.6850, 4.1181 -6.7165 4.6850 ] } coordIndex [ 0,3,2,1,-1, 4,5,6,7,-1, 0,1,5,4,-1, 1,2,6,5,-1, 2,3,7,6,-1, 3,0,4,7,-1 ] }
}
