#VRML V2.0 utf8
# heypcb-kicad simplified body: PLCC4 3.2 x 2.8 mm RGB LED envelope
Shape {
  appearance Appearance { material Material { diffuseColor 0.930 0.930 0.920 specularColor 0.30 0.30 0.30 shininess 0.6 } }
  geometry IndexedFaceSet { coord Coordinate { point [ -0.6299 -0.5512 0.0000, 0.6299 -0.5512 0.0000, 0.6299 0.5512 0.0000, -0.6299 0.5512 0.0000, -0.6299 -0.5512 0.7480, 0.6299 -0.5512 0.7480, 0.6299 0.5512 0.7480, -0.6299 0.5512 0.7480 ] } coordIndex [ 0,3,2,1,-1, 4,5,6,7,-1, 0,1,5,4,-1, 1,2,6,5,-1, 2,3,7,6,-1, 3,0,4,7,-1 ] }
}
Shape {
  appearance Appearance { material Material { diffuseColor 0.800 0.850 0.900 specularColor 0.90 0.90 0.90 shininess 0.6 } }
  geometry IndexedFaceSet { coord Coordinate { point [ -0.4528 -0.3937 0.7480, 0.4528 -0.3937 0.7480, 0.4528 0.3937 0.7480, -0.4528 0.3937 0.7480, -0.4528 -0.3937 0.7677, 0.4528 -0.3937 0.7677, 0.4528 0.3937 0.7677, -0.4528 0.3937 0.7677 ] } coordIndex [ 0,3,2,1,-1, 4,5,6,7,-1, 0,1,5,4,-1, 1,2,6,5,-1, 2,3,7,6,-1, 3,0,4,7,-1 ] }
}
Shape {
  appearance Appearance { material Material { diffuseColor 0.100 0.100 0.100 specularColor 0.10 0.10 0.10 shininess 0.6 } }
  geometry IndexedFaceSet { coord Coordinate { point [ -0.6299 0.3543 0.7480, -0.4331 0.3543 0.7480, -0.4331 0.5512 0.7480, -0.6299 0.5512 0.7480, -0.6299 0.3543 0.7717, -0.4331 0.3543 0.7717, -0.4331 0.5512 0.7717, -0.6299 0.5512 0.7717 ] } coordIndex [ 0,3,2,1,-1, 4,5,6,7,-1, 0,1,5,4,-1, 1,2,6,5,-1, 2,3,7,6,-1, 3,0,4,7,-1 ] }
}
