#VRML V2.0 utf8
# heypcb-kicad simplified body: Alps EC11E vertical encoder envelope
Shape {
  appearance Appearance { material Material { diffuseColor 0.620 0.630 0.650 specularColor 0.50 0.50 0.50 shininess 0.6 } }
  geometry IndexedFaceSet { coord Coordinate { point [ 0.5906 -3.2677 0.0000, 5.3150 -3.2677 0.0000, 5.3150 1.2992 0.0000, 0.5906 1.2992 0.0000, 0.5906 -3.2677 2.5591, 5.3150 -3.2677 2.5591, 5.3150 1.2992 2.5591, 0.5906 1.2992 2.5591 ] } coordIndex [ 0,3,2,1,-1, 4,5,6,7,-1, 0,1,5,4,-1, 1,2,6,5,-1, 2,3,7,6,-1, 3,0,4,7,-1 ] }
}
Shape {
  appearance Appearance { material Material { diffuseColor 0.700 0.700 0.720 specularColor 0.40 0.40 0.40 shininess 0.6 } }
  geometry IndexedFaceSet { coord Coordinate { point [ 4.3307 -0.9843 2.5591, 4.2838 -0.6276 2.5591, 4.1461 -0.2953 2.5591, 3.9271 -0.0099 2.5591, 3.6417 0.2091 2.5591, 3.3094 0.3467 2.5591, 2.9528 0.3937 2.5591, 2.5961 0.3467 2.5591, 2.2638 0.2091 2.5591, 1.9784 -0.0099 2.5591, 1.7594 -0.2953 2.5591, 1.6218 -0.6276 2.5591, 1.5748 -0.9843 2.5591, 1.6218 -1.3409 2.5591, 1.7594 -1.6732 2.5591, 1.9784 -1.9586 2.5591, 2.2638 -2.1776 2.5591, 2.5961 -2.3153 2.5591, 2.9528 -2.3622 2.5591, 3.3094 -2.3153 2.5591, 3.6417 -2.1776 2.5591, 3.9271 -1.9586 2.5591, 4.1461 -1.6732 2.5591, 4.2838 -1.3409 2.5591, 4.3307 -0.9843 5.1181, 4.2838 -0.6276 5.1181, 4.1461 -0.2953 5.1181, 3.9271 -0.0099 5.1181, 3.6417 0.2091 5.1181, 3.3094 0.3467 5.1181, 2.9528 0.3937 5.1181, 2.5961 0.3467 5.1181, 2.2638 0.2091 5.1181, 1.9784 -0.0099 5.1181, 1.7594 -0.2953 5.1181, 1.6218 -0.6276 5.1181, 1.5748 -0.9843 5.1181, 1.6218 -1.3409 5.1181, 1.7594 -1.6732 5.1181, 1.9784 -1.9586 5.1181, 2.2638 -2.1776 5.1181, 2.5961 -2.3153 5.1181, 2.9528 -2.3622 5.1181, 3.3094 -2.3153 5.1181, 3.6417 -2.1776 5.1181, 3.9271 -1.9586 5.1181, 4.1461 -1.6732 5.1181, 4.2838 -1.3409 5.1181 ] } coordIndex [ 23,22,21,20,19,18,17,16,15,14,13,12,11,10,9,8,7,6,5,4,3,2,1,0,-1 24,25,26,27,28,29,30,31,32,33,34,35,36,37,38,39,40,41,42,43,44,45,46,47,-1 0,1,25,24,-1 1,2,26,25,-1 2,3,27,26,-1 3,4,28,27,-1 4,5,29,28,-1 5,6,30,29,-1 6,7,31,30,-1 7,8,32,31,-1 8,9,33,32,-1 9,10,34,33,-1 10,11,35,34,-1 11,12,36,35,-1 12,13,37,36,-1 13,14,38,37,-1 14,15,39,38,-1 15,16,40,39,-1 16,17,41,40,-1 17,18,42,41,-1 18,19,43,42,-1 19,20,44,43,-1 20,21,45,44,-1 21,22,46,45,-1 22,23,47,46,-1 23,0,24,47,-1 ] }
}
Shape {
  appearance Appearance { material Material { diffuseColor 0.820 0.820 0.840 specularColor 0.70 0.70 0.70 shininess 0.6 } }
  geometry IndexedFaceSet { coord Coordinate { point [ 4.1339 -0.9843 5.1181, 4.0936 -0.6786 5.1181, 3.9756 -0.3937 5.1181, 3.7879 -0.1491 5.1181, 3.5433 0.0386 5.1181, 3.2584 0.1566 5.1181, 2.9528 0.1969 5.1181, 2.6471 0.1566 5.1181, 2.3622 0.0386 5.1181, 2.1176 -0.1491 5.1181, 1.9299 -0.3937 5.1181, 1.8119 -0.6786 5.1181, 1.7717 -0.9843 5.1181, 1.8119 -1.2899 5.1181, 1.9299 -1.5748 5.1181, 2.1176 -1.8194 5.1181, 2.3622 -2.0071 5.1181, 2.6471 -2.1251 5.1181, 2.9528 -2.1654 5.1181, 3.2584 -2.1251 5.1181, 3.5433 -2.0071 5.1181, 3.7879 -1.8194 5.1181, 3.9756 -1.5748 5.1181, 4.0936 -1.2899 5.1181, 4.1339 -0.9843 7.8740, 4.0936 -0.6786 7.8740, 3.9756 -0.3937 7.8740, 3.7879 -0.1491 7.8740, 3.5433 0.0386 7.8740, 3.2584 0.1566 7.8740, 2.9528 0.1969 7.8740, 2.6471 0.1566 7.8740, 2.3622 0.0386 7.8740, 2.1176 -0.1491 7.8740, 1.9299 -0.3937 7.8740, 1.8119 -0.6786 7.8740, 1.7717 -0.9843 7.8740, 1.8119 -1.2899 7.8740, 1.9299 -1.5748 7.8740, 2.1176 -1.8194 7.8740, 2.3622 -2.0071 7.8740, 2.6471 -2.1251 7.8740, 2.9528 -2.1654 7.8740, 3.2584 -2.1251 7.8740, 3.5433 -2.0071 7.8740, 3.7879 -1.8194 7.8740, 3.9756 -1.5748 7.8740, 4.0936 -1.2899 7.8740 ] } coordIndex [ 23,22,21,20,19,18,17,16,15,14,13,12,11,10,9,8,7,6,5,4,3,2,1,0,-1 24,25,26,27,28,29,30,31,32,33,34,35,36,37,38,39,40,41,42,43,44,45,46,47,-1 0,1,25,24,-1 1,2,26,25,-1 2,3,27,26,-1 3,4,28,27,-1 4,5,29,28,-1 5,6,30,29,-1 6,7,31,30,-1 7,8,32,31,-1 8,9,33,32,-1 9,10,34,33,-1 10,11,35,34,-1 11,12,36,35,-1 12,13,37,36,-1 13,14,38,37,-1 14,15,39,38,-1 15,16,40,39,-1 16,17,41,40,-1 17,18,42,41,-1 18,19,43,42,-1 19,20,44,43,-1 20,21,45,44,-1 21,22,46,45,-1 22,23,47,46,-1 23,0,24,47,-1 ] }
}
