#VRML V2.0 utf8
# heypcb-kicad simplified body: MaiXu MX126 5.0 mm 2P envelope
Shape {
  appearance Appearance { material Material { diffuseColor 0.130 0.480 0.250 specularColor 0.20 0.20 0.20 shininess 0.6 } }
  geometry IndexedFaceSet { coord Coordinate { point [ -1.1811 -1.4961 0.0000, 2.9528 -1.4961 0.0000, 2.9528 1.5748 0.0000, -1.1811 1.5748 0.0000, -1.1811 -1.4961 3.9370, 2.9528 -1.4961 3.9370, 2.9528 1.5748 3.9370, -1.1811 1.5748 3.9370 ] } coordIndex [ 0,3,2,1,-1, 4,5,6,7,-1, 0,1,5,4,-1, 1,2,6,5,-1, 2,3,7,6,-1, 3,0,4,7,-1 ] }
}
Shape {
  appearance Appearance { material Material { diffuseColor 0.700 0.710 0.720 specularColor 0.60 0.60 0.60 shininess 0.6 } }
  geometry IndexedFaceSet { coord Coordinate { point [ -0.6299 -0.6299 3.9331, 0.6299 -0.6299 3.9331, 0.6299 0.6299 3.9331, -0.6299 0.6299 3.9331, -0.6299 -0.6299 4.0354, 0.6299 -0.6299 4.0354, 0.6299 0.6299 4.0354, -0.6299 0.6299 4.0354 ] } coordIndex [ 0,3,2,1,-1, 4,5,6,7,-1, 0,1,5,4,-1, 1,2,6,5,-1, 2,3,7,6,-1, 3,0,4,7,-1 ] }
}
Shape {
  appearance Appearance { material Material { diffuseColor 0.200 0.200 0.210 specularColor 0.10 0.10 0.10 shininess 0.6 } }
  geometry IndexedFaceSet { coord Coordinate { point [ -0.5118 -0.0984 4.0354, 0.5118 -0.0984 4.0354, 0.5118 0.0984 4.0354, -0.5118 0.0984 4.0354, -0.5118 -0.0984 4.0394, 0.5118 -0.0984 4.0394, 0.5118 0.0984 4.0394, -0.5118 0.0984 4.0394 ] } coordIndex [ 0,3,2,1,-1, 4,5,6,7,-1, 0,1,5,4,-1, 1,2,6,5,-1, 2,3,7,6,-1, 3,0,4,7,-1 ] }
}
Shape {
  appearance Appearance { material Material { diffuseColor 0.040 0.050 0.050 specularColor 0.10 0.10 0.10 shininess 0.6 } }
  geometry IndexedFaceSet { coord Coordinate { point [ -0.6299 -1.5000 0.6299, 0.6299 -1.5000 0.6299, 0.6299 -1.2598 0.6299, -0.6299 -1.2598 0.6299, -0.6299 -1.5000 1.9685, 0.6299 -1.5000 1.9685, 0.6299 -1.2598 1.9685, -0.6299 -1.2598 1.9685 ] } coordIndex [ 0,3,2,1,-1, 4,5,6,7,-1, 0,1,5,4,-1, 1,2,6,5,-1, 2,3,7,6,-1, 3,0,4,7,-1 ] }
}
Shape {
  appearance Appearance { material Material { diffuseColor 0.700 0.710 0.720 specularColor 0.60 0.60 0.60 shininess 0.6 } }
  geometry IndexedFaceSet { coord Coordinate { point [ 1.3386 -0.6299 3.9331, 2.5984 -0.6299 3.9331, 2.5984 0.6299 3.9331, 1.3386 0.6299 3.9331, 1.3386 -0.6299 4.0354, 2.5984 -0.6299 4.0354, 2.5984 0.6299 4.0354, 1.3386 0.6299 4.0354 ] } coordIndex [ 0,3,2,1,-1, 4,5,6,7,-1, 0,1,5,4,-1, 1,2,6,5,-1, 2,3,7,6,-1, 3,0,4,7,-1 ] }
}
Shape {
  appearance Appearance { material Material { diffuseColor 0.200 0.200 0.210 specularColor 0.10 0.10 0.10 shininess 0.6 } }
  geometry IndexedFaceSet { coord Coordinate { point [ 1.4567 -0.0984 4.0354, 2.4803 -0.0984 4.0354, 2.4803 0.0984 4.0354, 1.4567 0.0984 4.0354, 1.4567 -0.0984 4.0394, 2.4803 -0.0984 4.0394, 2.4803 0.0984 4.0394, 1.4567 0.0984 4.0394 ] } coordIndex [ 0,3,2,1,-1, 4,5,6,7,-1, 0,1,5,4,-1, 1,2,6,5,-1, 2,3,7,6,-1, 3,0,4,7,-1 ] }
}
Shape {
  appearance Appearance { material Material { diffuseColor 0.040 0.050 0.050 specularColor 0.10 0.10 0.10 shininess 0.6 } }
  geometry IndexedFaceSet { coord Coordinate { point [ 1.3386 -1.5000 0.6299, 2.5984 -1.5000 0.6299, 2.5984 -1.2598 0.6299, 1.3386 -1.2598 0.6299, 1.3386 -1.5000 1.9685, 2.5984 -1.5000 1.9685, 2.5984 -1.2598 1.9685, 1.3386 -1.2598 1.9685 ] } coordIndex [ 0,3,2,1,-1, 4,5,6,7,-1, 0,1,5,4,-1, 1,2,6,5,-1, 2,3,7,6,-1, 3,0,4,7,-1 ] }
}
